<svg width="18" height="18" viewBox="0 0 18 18" fill="none" xmlns="http://www.w3.org/2000/svg">
<path d="M5.75 0.75V16.75M0.75 2.75C0.75 2.21957 0.960714 1.71086 1.33579 1.33579C1.71086 0.960714 2.21957 0.75 2.75 0.75H14.75C15.2804 0.75 15.7891 0.960714 16.1642 1.33579C16.5393 1.71086 16.75 2.21957 16.75 2.75V14.75C16.75 15.2804 16.5393 15.7891 16.1642 16.1642C15.7891 16.5393 15.2804 16.75 14.75 16.75H2.75C2.21957 16.75 1.71086 16.5393 1.33579 16.1642C0.960714 15.7891 0.75 15.2804 0.75 14.75V2.75Z" stroke="#1A1A1A" stroke-width="1.5" stroke-linecap="round" stroke-linejoin="round"/>
<path d="M10.75 6.75L12.75 8.75L10.75 10.75" stroke="#1A1A1A" stroke-width="1.5" stroke-linecap="round" stroke-linejoin="round"/>
</svg>
