<svg width="24" height="24" viewBox="0 0 24 24" fill="none" xmlns="http://www.w3.org/2000/svg">
<path d="M13.6241 19.0244C13.3902 19.2591 13.0103 19.2599 12.7756 19.026L6.19414 12.468C5.93529 12.2101 5.93529 11.7909 6.19414 11.5329L12.7756 4.97497C13.0103 4.74107 13.3902 4.74175 13.6241 4.97648C13.858 5.21122 13.8572 5.59111 13.6225 5.825L7.42504 12.0005L13.6225 18.1759C13.8572 18.4098 13.858 18.7897 13.6241 19.0244ZM18.4229 19.0244C18.189 19.2591 17.8091 19.2599 17.5744 19.026L10.993 12.468C10.7341 12.2101 10.7341 11.7909 10.993 11.5329L17.5744 4.97497C17.8091 4.74107 18.189 4.74175 18.4229 4.97648C18.6568 5.21122 18.656 5.59111 18.4213 5.825L12.2239 12.0005L18.4213 18.1759C18.656 18.4098 18.6568 18.7897 18.4229 19.0244Z" fill="#1A1A1A"/>
</svg>
