<svg width="24" height="24" viewBox="0 0 24 24" fill="none" xmlns="http://www.w3.org/2000/svg">
<path d="M10.3749 4.97648C10.6088 4.74175 10.9887 4.74107 11.2234 4.97497L17.8048 11.5329C18.0636 11.7909 18.0636 12.2101 17.8048 12.468L11.2234 19.026C10.9887 19.2599 10.6088 19.2591 10.3749 19.0244C10.141 18.7897 10.1417 18.4098 10.3764 18.1759L16.5739 12.0005L10.3764 5.825C10.1417 5.59111 10.141 5.21122 10.3749 4.97648ZM5.57489 4.97648C5.80878 4.74175 6.18867 4.74107 6.42341 4.97497L13.0048 11.5329C13.2636 11.7909 13.2636 12.2101 13.0048 12.468L6.42341 19.026C6.18867 19.2599 5.80878 19.2591 5.57489 19.0244C5.34098 18.7897 5.34167 18.4098 5.5764 18.1759L11.7739 12.0005L5.5764 5.825C5.34167 5.59111 5.34098 5.21122 5.57489 4.97648Z" fill="#1A1A1A"/>
</svg>
