<svg width="24" height="24" viewBox="0 0 24 24" fill="none" xmlns="http://www.w3.org/2000/svg">
<path d="M5.14231 5.29399L5.21258 5.21258C5.47027 4.9549 5.87348 4.93148 6.15762 5.14231L6.23903 5.21258L12.5 11.4732L18.761 5.21258C19.0445 4.92914 19.5039 4.92914 19.7874 5.21258C20.0708 5.49603 20.0708 5.95559 19.7874 6.23903L13.5268 12.5L19.7874 18.761C20.0451 19.0186 20.0685 19.4219 19.8577 19.706L19.7874 19.7874C19.5298 20.0451 19.1265 20.0685 18.8424 19.8577L18.761 19.7874L12.5 13.5268L6.23903 19.7874C5.95559 20.0708 5.49603 20.0708 5.21258 19.7874C4.92914 19.5039 4.92914 19.0445 5.21258 18.761L11.4732 12.5L5.21258 6.23903C4.9549 5.98135 4.93148 5.57813 5.14231 5.29399Z" fill="#1A1A1A"/>
</svg>
