<svg width="30" height="32" viewBox="0 0 30 32" fill="none" xmlns="http://www.w3.org/2000/svg">
<path d="M28.8348 0H1.16019C0.520087 0 0 0.52 0 1.16V30.84C0 31.48 0.520087 32 1.16019 32H28.8398C29.4799 32 30 31.48 30 30.84V1.16C29.9978 0.852175 29.8741 0.557668 29.6559 0.340466C29.4378 0.123263 29.1427 0.000913916 28.8348 0ZM18.7081 7.885C19.3532 7.885 19.8683 8.405 19.8683 9.045C19.8683 9.685 19.3532 10.205 18.7081 10.205H16.1577V12.755C16.1577 13.395 15.6426 13.915 14.9975 13.915C14.3574 13.915 13.8373 13.395 13.8373 12.755V10.205H11.2869C10.6468 10.205 10.1267 9.685 10.1267 9.045C10.1267 8.405 10.6468 7.885 11.2869 7.885H13.8373V5.335C13.8373 4.695 14.3574 4.175 14.9975 4.175C15.6426 4.175 16.1577 4.695 16.1577 5.335V7.885H18.7081ZM11.0268 19.265H18.9582V29.68H11.0268V19.265Z" fill="#085E56"/>
</svg>
