<svg width="64" height="80" viewBox="0 0 64 80" fill="none" xmlns="http://www.w3.org/2000/svg">
<path d="M55.0024 47.9813C59.9708 47.9813 63.998 52.0085 63.998 56.9769V59.2785C63.998 62.8557 62.7196 66.3149 60.3936 69.0325C54.116 76.3665 44.5672 79.9857 31.986 79.9857C19.4024 79.9857 9.85832 76.3653 3.59312 69.0281C1.27404 66.3125 0 62.8585 0 59.2873V56.9769C0 52.0085 4.0274 47.9813 8.99548 47.9813H55.0024ZM55.0024 53.9813H8.99548C7.34112 53.9813 6 55.3225 6 56.9769V59.2873C6 61.4301 6.76444 63.5025 8.15584 65.1317C13.1691 71.0025 21.0326 73.9857 31.986 73.9857C42.9392 73.9857 50.8096 71.0025 55.8352 65.1309C57.2312 63.5001 57.998 61.4245 57.998 59.2785V56.9769C57.998 55.3225 56.6568 53.9813 55.0024 53.9813ZM31.986 0C43.0316 0 51.986 8.95432 51.986 20C51.986 31.0457 43.0316 40.0001 31.986 40.0001C20.9401 40.0001 11.9858 31.0457 11.9858 20C11.9858 8.95432 20.9401 0 31.986 0ZM31.986 6C24.254 6 17.9858 12.268 17.9858 20C17.9858 27.732 24.254 34.0001 31.986 34.0001C39.718 34.0001 45.986 27.732 45.986 20C45.986 12.268 39.718 6 31.986 6Z" fill="#1A2333"/>
</svg>
