<svg width="32" height="32" viewBox="0 0 32 32" fill="none" xmlns="http://www.w3.org/2000/svg">
<path d="M14.6672 23.3338C14.6672 21.6151 15.1673 20.0134 16.0301 18.6662L5.67037 18.667C4.01434 18.667 2.67188 20.0094 2.67188 21.6655V22.892C2.67188 23.6548 2.90974 24.3986 3.35236 25.0198C5.40857 27.9056 8.77253 29.3351 13.3339 29.3351C14.5756 29.3351 15.7288 29.2292 16.7895 29.0158C15.4675 27.4943 14.6672 25.5075 14.6672 23.3338ZM20.0005 9.33988C20.0005 5.65799 17.0157 2.67322 13.3339 2.67322C9.65191 2.67322 6.66714 5.65799 6.66714 9.33988C6.66714 13.0218 9.65191 16.0066 13.3339 16.0066C17.0157 16.0066 20.0005 13.0218 20.0005 9.33988ZM30.6672 23.3336C30.6672 19.2836 27.3839 16.0003 23.3339 16.0003C19.2837 16.0003 16.0005 19.2836 16.0005 23.3336C16.0005 27.3838 19.2837 30.667 23.3339 30.667C27.3839 30.667 30.6672 27.3838 30.6672 23.3336ZM23.214 18.6778L23.3339 18.667L23.4536 18.6778C23.7257 18.7271 23.9404 18.9418 23.9897 19.2139L24.0005 19.3336L23.9992 22.667H27.3391L27.4589 22.6778C27.7309 22.7271 27.9456 22.9418 27.9949 23.2139L28.0057 23.3336L27.9949 23.4535C27.9456 23.7256 27.7309 23.9402 27.4589 23.9896L27.3391 24.0003H23.9992L24.0005 27.3336L23.9897 27.4535C23.9404 27.7256 23.7257 27.9402 23.4536 27.9896L23.3339 28.0003L23.214 27.9896C22.9419 27.9402 22.7273 27.7256 22.6779 27.4535L22.6672 27.3336L22.6659 24.0003H19.3391L19.2192 23.9896C18.9471 23.9402 18.7325 23.7256 18.6831 23.4535L18.6724 23.3336L18.6831 23.2139C18.7325 22.9418 18.9471 22.7271 19.2192 22.6778L19.3391 22.667H22.6659L22.6672 19.3336L22.6779 19.2139C22.7273 18.9418 22.9419 18.7271 23.214 18.6778Z" fill="#FCFCFC"/>
</svg>
